<svg width="24px" height="24px" id="Layer_1" data-name="Layer 1" xmlns="http://www.w3.org/2000/svg" viewBox="0 0 91.5 122.88"><defs><style>.cls-1{fill-rule:evenodd;}</style></defs><title>remove-bookmark</title><path class="cls-1" d="M62.42,0A29.08,29.08,0,1,1,33.34,29.08,29.08,29.08,0,0,1,62.42,0ZM3.18,19.65H24.73a38,38,0,0,0-1,6.36H6.35v86.75L37.11,86.12a3.19,3.19,0,0,1,4.18,0l31,26.69V66.68a39.26,39.26,0,0,0,6.35-2.27V119.7a3.17,3.17,0,0,1-5.42,2.24l-34-29.26-34,29.42a3.17,3.17,0,0,1-4.47-.33A3.11,3.11,0,0,1,0,119.7H0V22.83a3.18,3.18,0,0,1,3.18-3.18Zm72.1,5.77a4.3,4.3,0,0,1,3,1.26,4.23,4.23,0,0,1,.92,1.38l0,.07a4.4,4.4,0,0,1,.31,1.49v.18a4.37,4.37,0,0,1-.32,1.55,4.45,4.45,0,0,1-.93,1.4,4.39,4.39,0,0,1-1.38.92l-.08,0a4.14,4.14,0,0,1-1.54.3H49.56a4.28,4.28,0,0,1-1.64-.32l-.07,0a4.32,4.32,0,0,1-2.25-2.28l0-.08a4.58,4.58,0,0,1-.3-1.54v0a4.39,4.39,0,0,1,.33-1.63,4.3,4.3,0,0,1,3.93-2.66Z"/></svg>